<?xml version="1.0" encoding="utf-8"?>
<!-- Generator: Adobe Illustrator 26.5.0, SVG Export Plug-In . SVG Version: 6.00 Build 0)  -->
<svg version="1.1" id="Capa_1" xmlns="http://www.w3.org/2000/svg" xmlns:xlink="http://www.w3.org/1999/xlink" x="0px" y="0px"
	 viewBox="0 0 384 384" style="enable-background:new 0 0 384 384;" xml:space="preserve">
<style type="text/css">
	.st0{fill:#E77C35;}
</style>
<g>
	<path class="st0" d="M277.52,383.96c-57.35,0-114.7,0-172.05,0c0-15.92,0-31.84,0-48.13c10.09,0,19.88,0,30.04,0
		c0-8.42,0-16.47,0-25.02c10.39,0,20.41,0,30.74,0c0-7.22-0.11-13.95,0.06-20.66c0.06-2.37-0.78-3.4-2.88-4.41
		c-6.89-3.31-10.64-9.02-10.73-16.66c-0.09-7.64,3.64-13.3,10.32-16.97c0.83-0.46,1.67-0.91,2.56-1.39
		c-1.57-7.18-6.08-11.61-11.75-15.48c-6.05-4.13-11.81-8.72-17.36-13.5c-2.24-1.93-4.19-2.95-7.19-2.77
		c-27.67,1.6-52.36-6.47-74.14-23.5c-26.67-20.84-43.47-48-50.84-80.99C0.19,96.1-1.71,77.51,1.54,58.76
		C4.85,39.65,16.75,27.6,35.76,23.94c10.46-2.01,20.84-0.79,31.14,1.39c3.2,0.68,6.38,1.47,9.39,2.17c0-9.38,0-18.34,0-27.31
		c76.8,0,153.6,0,230.4,0c0,9.05,0,18.1,0,27.38c1.19-0.3,2.37-0.58,3.55-0.89c11.14-2.89,22.38-4.45,33.93-3.28
		c17.61,1.79,30.94,12.64,35.83,29.7c1.29,4.51,2.01,9.19,2.99,13.79c0,6.75,0,13.49,0,20.24c-0.24,1.21-0.6,2.4-0.69,3.62
		c-2.39,30.94-12.43,58.95-32.21,83.07c-14.41,17.58-31.91,31.12-53.39,39.06c-14.11,5.22-28.76,6.9-43.74,6.14
		c-1.48-0.08-3.34,0.16-4.46,1.01c-7.55,5.67-14.92,11.58-22.4,17.34c-4.49,3.46-7.65,7.69-8.62,13.42c0.48,0.3,0.77,0.53,1.1,0.68
		c7.37,3.38,11.62,9.09,11.68,17.22c0.06,8.28-4.16,14.13-11.68,17.62c-0.75,0.35-1.75,1.28-1.76,1.95
		c-0.13,7.44-0.08,14.89-0.08,22.82c10.55,0,20.56,0,30.97,0c0,8.55,0,16.59,0,24.98c10.21,0,20,0,29.79,0
		C277.52,352.28,277.52,368.12,277.52,383.96z M88.44,30.99c1.75,26.41,4.72,52.28,9.98,77.86c5.17,25.11,11.73,49.79,23.48,72.73
		c9.39,18.34,21.14,34.69,39.6,45.2c7.94,4.52,12.72,11.71,15.17,20.53c0.3,1.08,1.74,2.61,2.68,2.63c8.1,0.21,16.2,0.18,24.3,0.03
		c0.88-0.02,2.31-1.12,2.51-1.95c2.57-10.67,9.19-17.94,18.46-23.34c9.62-5.61,17.26-13.46,23.81-22.41
		c14.6-19.93,23.18-42.61,29.78-66.13c7.81-27.83,12.17-56.3,14.85-85.04c0.62-6.64,1.06-13.31,1.59-20.13
		C225.72,30.99,157.33,30.99,88.44,30.99z M109.12,182.17c-0.19-0.73-0.24-1.1-0.39-1.43c-14.89-33.57-22.66-69-27.42-105.22
		c-0.51-3.89-0.14-8.93-2.41-11.27c-2.47-2.56-7.49-2.85-11.49-3.68c-7.32-1.52-14.71-2.68-22.19-0.83
		c-5.98,1.48-10.44,5.02-11.1,11.17c-0.65,6.1-0.54,12.45,0.39,18.51c3.82,24.95,12.43,47.96,29.17,67.31
		C75.62,170.54,90.01,180.15,109.12,182.17z M273.77,182.15c16.92-1.66,30.31-9.37,41.48-21.02c22.06-22.99,31.71-51.41,34.55-82.46
		c1.08-11.84-4.57-18.87-15.71-19.35c-7.82-0.33-15.8,1.13-23.58,2.54c-7.55,1.36-7.32,1.8-8.28,9.59
		c-3.82,31-9.81,61.52-20.6,90.94C279.24,168.92,276.5,175.32,273.77,182.15z M116.79,372.32c50.11,0,99.74,0,149.36,0
		c0-8.47,0-16.64,0-24.89c-49.89,0-99.54,0-149.36,0C116.79,355.8,116.79,363.98,116.79,372.32z M124.2,207.83
		c-2.34-3.66-4.57-6.55-6.14-9.77c-1.59-3.25-3.89-4.25-7.33-4.43c-15.37-0.82-29.11-6.12-41.21-15.68
		c-21.59-17.06-34.71-39.6-41.62-65.85c-2.81-10.68-4.89-21.69-5.92-32.68c-1.7-18.21,8.42-30.09,26.57-31.53
		c6.84-0.54,13.85,0.78,20.76,1.51c2.99,0.31,5.91,1.26,9.19,2c-0.27-3.29-0.25-6.06-0.82-8.7c-0.27-1.25-1.45-2.89-2.58-3.27
		c-11.32-3.77-22.92-5.7-34.92-4.68c-13.65,1.17-23.7,9.96-26.82,23.28c-2.87,12.26-2.18,24.56-0.77,36.86
		c4.79,41.83,23.76,75.19,59.31,98.35C87.55,203.42,104.96,207.9,124.2,207.83z M259.22,207.25c0.1,0.42,0.21,0.85,0.31,1.27
		c7.84-1.13,15.85-1.62,23.5-3.51c28.59-7.05,49.52-24.88,65.73-48.71c13.57-19.95,20.29-42.37,22.2-66.3
		c0.86-10.83,1.44-21.72-1.45-32.38c-2.99-11.01-9.34-18.83-20.92-21.63c-14.25-3.45-27.92-0.63-41.47,3.65
		c-0.7,0.22-1.66,0.98-1.73,1.58c-0.41,3.28-0.58,6.6-0.85,10.24c2.17-0.52,3.85-0.93,5.53-1.33c8.89-2.15,17.84-3.43,27.02-2.13
		c13.25,1.88,22.01,9.99,23.42,23.29c0.7,6.59,0.18,13.47-0.83,20.06c-3.32,21.66-9.91,42.2-22.36,60.54
		c-16.27,23.97-37.1,40.55-67.35,42.06c-1.18,0.06-2.77,0.74-3.4,1.66C263.96,199.38,261.64,203.35,259.22,207.25z M87.97,11.74
		c-1.14,7.6-1.07,7.69,5.92,7.69c65.42,0,130.83,0,196.25,0c1.58,0,3.16,0,5.02,0c0-2.88,0-5.27,0-7.69
		C225.9,11.74,156.92,11.74,87.97,11.74z M147.09,335.61c29.8,0,59.24,0,88.81,0c0-4.48,0-8.66,0-13.06c-29.68,0-59.13,0-88.81,0
		C147.09,326.95,147.09,331.13,147.09,335.61z M191.5,276.19c6.34,0,12.69,0.06,19.03-0.02c5.08-0.07,8.27-2.85,8.4-7.1
		c0.14-4.32-3.22-7.44-8.4-7.48c-12.69-0.08-25.38-0.08-38.06,0c-5.19,0.03-8.54,3.16-8.4,7.48c0.14,4.25,3.32,7.03,8.41,7.1
		C178.81,276.25,185.16,276.19,191.5,276.19z M205.02,287.93c-9.26,0-18.05,0-26.93,0c0,7.74,0,15.23,0,22.7c9.14,0,17.92,0,26.93,0
		C205.02,302.98,205.02,295.58,205.02,287.93z"/>
	<path class="st0" d="M57.08,297.87c2.73,0,5.07,0,7.69,0c0.14-2.69,0.27-5.11,0.4-7.74c3.66,0,7.11,0,10.95,0c0,2.36,0,4.78,0,7.6
		c2.79,0,5.21,0,7.97,0c0,3.9,0,7.43,0,11.38c-2.46,0.15-5,0.31-7.76,0.49c0,2.56,0,4.9,0,7.51c-3.77,0-7.3,0-11.17,0
		c-0.11-2.41-0.22-4.83-0.34-7.5c-2.65-0.15-5.09-0.28-7.74-0.43C57.08,305.48,57.08,301.94,57.08,297.87z"/>
	<path class="st0" d="M36.84,216.27c3.46,0,6.64,0,10.09,0c0,3.66,0,7.18,0,10.99c-3.28,0-6.55,0-10.09,0
		C36.84,223.74,36.84,220.2,36.84,216.27z"/>
	<path class="st0" d="M115.98,250.14c0,3.73,0,7.17,0,10.87c-3.46,0-6.75,0-10.27,0c0-3.59,0-7.13,0-10.87
		C109.16,250.14,112.54,250.14,115.98,250.14z"/>
	<path class="st0" d="M310.81,229.33c4.15,0,7.59,0,11.43,0c0,3.09,0,6.01,0,9.33c3.31,0,6.23,0,9.42,0c0,3.94,0,7.47,0,11.44
		c-3.02,0-5.94,0-9.29,0c0,3.35,0,6.27,0,9.42c-3.86,0-7.29,0-11.23,0c0-2.84,0-5.74,0-9.12c-3.38,0-6.29,0-9.48,0
		c0-4.01,0-7.54,0-11.52c2.86,0,5.78,0,9.15,0C310.81,235.54,310.81,232.63,310.81,229.33z"/>
	<path class="st0" d="M289.02,284.49c0,3.67,0,7.19,0,10.9c-3.51,0-6.81,0-10.36,0c0-3.6,0-7.12,0-10.9
		C282.08,284.49,285.45,284.49,289.02,284.49z"/>
	<path class="st0" d="M108.45,124.13c3.77-0.87,7.14-1.66,10.99-2.55c4.78,19.54,10.54,38.66,20.5,56.57
		c-3.25,1.89-6.32,3.67-9.77,5.68C119.62,165.17,113.39,145.1,108.45,124.13z"/>
	<path class="st0" d="M144.6,204.49c-3.65-4.73-6.89-8.95-10.31-13.38c3.35-2.21,6.33-4.17,9.43-6.22c3.1,3.95,5.99,7.66,9.22,11.77
		C150.29,199.15,147.61,201.66,144.6,204.49z"/>
</g>
</svg>
