<?xml version="1.0" encoding="utf-8"?>
<!-- Generator: Adobe Illustrator 26.5.0, SVG Export Plug-In . SVG Version: 6.00 Build 0)  -->
<svg version="1.1" id="Capa_1" xmlns="http://www.w3.org/2000/svg" xmlns:xlink="http://www.w3.org/1999/xlink" x="0px" y="0px"
	 viewBox="0 0 384 384" style="enable-background:new 0 0 384 384;" xml:space="preserve">
<style type="text/css">
	.st0{fill:#E77C35;}
</style>
<path class="st0" d="M0,180.4c0.97-7.14,1.78-14.31,2.95-21.42C15.55,82.42,77.86,18.87,154.23,4.38c30.57-5.8,60.76-4.6,90.67,3.9
	c6.44,1.83,9.91,6.37,9.66,12.47c-0.23,5.52-4.2,10.2-9.87,11.06c-2.13,0.32-4.49-0.03-6.6-0.61c-40.14-11.04-79.45-8.7-117.01,9.31
	c-51.36,24.63-83.59,65.21-94.04,121.31c-14.04,75.37,22.61,147.1,91.44,181.3c26.9,13.37,55.62,19.26,85.58,16.25
	c69.53-6.99,117.81-43.38,144.2-107.81c13.58-33.16,14.4-67.69,5.41-102.41c-0.8-3.1-1.75-6.38-1.48-9.48
	c0.51-5.76,5.24-9.86,10.69-10.23c5.98-0.4,11.22,2.89,12.57,8.95c2.59,11.65,5.62,23.34,6.74,35.17
	c4.58,48.48-7.03,92.94-36.16,132.11c-32.96,44.32-77.12,70.12-132.12,76.98c-3.44,0.43-6.88,0.9-10.32,1.35
	c-7.98,0-15.97,0-23.95,0c-0.83-0.2-1.66-0.48-2.5-0.6c-8.74-1.28-17.57-2.12-26.23-3.85C76.62,364.68,15.07,300.79,2.99,226.14
	c-1.17-7.24-2-14.53-2.99-21.79C0,196.37,0,188.38,0,180.4z"/>
<path class="st0" d="M58.75,192.57C59.47,126.88,107.93,70.85,172.9,61.6c17.96-2.56,35.83-1.63,53.36,3.33
	c5.71,1.61,8.98,5.9,9.08,11.39c0.1,5.34-3.1,10.17-8.39,11.44c-2.64,0.63-5.72,0.41-8.4-0.24
	c-58.01-14.15-115.06,19.02-131.23,76.38c-17.06,60.53,23.2,124.24,85.19,134.85c58.43,10,113.03-26.99,125.1-84.94
	c3.27-15.71,2.82-31.45-0.85-47.11c-0.72-3.07-1.19-6.49-0.58-9.51c1.07-5.28,5.96-8.55,11.32-8.57c5.29-0.01,9.87,3.26,11.42,8.55
	c3.35,11.44,4.82,23.17,4.77,35.08c-0.25,60.12-39.53,111.44-97.61,127.6c-71.39,19.86-147.09-25.42-163.06-97.77
	C60.88,212.41,60.14,202.42,58.75,192.57z"/>
<path class="st0" d="M190.81,204.32c-4.08-0.26-7.72-2.34-9.85-6.63c-2.2-4.43-1.67-8.72,1.25-12.67c0.81-1.09,1.86-2.01,2.83-2.98
	c21.78-21.78,43.6-43.54,65.29-65.41c1.41-1.42,2.43-3.74,2.65-5.74c1.94-17.97,3.72-35.96,5.42-53.95
	c0.44-4.71,2.31-8.41,5.71-11.75c13.34-13.12,26.54-26.37,39.7-39.67c4.05-4.09,8.57-6.09,14.15-3.87
	c5.38,2.14,7.36,6.55,7.73,12.14c0.87,12.94,2.02,25.85,2.94,38.79c0.15,2.13,1.08,2.66,3.02,2.8c13.18,0.95,26.35,2.02,39.53,3.02
	c5.33,0.4,9.31,2.77,11.24,7.86c1.88,4.95,0.59,9.33-3.08,13.01c-14,14.04-27.95,28.14-42.16,41.98c-2.06,2.01-5.3,3.55-8.16,3.89
	c-16.46,1.94-32.97,3.46-49.47,5.12c-2.73,0.27-5.51,0.3-8.17,0.88c-1.43,0.31-2.88,1.34-3.96,2.42
	c-22.09,22.01-44.14,44.05-66.16,66.13C198.52,202.44,195.49,204.37,190.81,204.32z M303.69,40.26c-0.65,0.3-1.04,0.37-1.26,0.6
	c-6.36,6.32-12.75,12.62-19.01,19.05c-0.84,0.87-1.28,2.37-1.42,3.64c-1.02,9.28-1.91,18.58-2.84,27.87
	c-0.49,4.89-0.97,9.78-1.48,14.92c14.18-1.4,27.8-2.79,41.43-4.05c2.75-0.26,4.82-1.26,6.75-3.29c4.97-5.24,10.18-10.26,15.28-15.37
	c0.91-0.91,1.79-1.86,3.13-3.26c-1.78-0.15-2.74-0.23-3.7-0.31c-8.07-0.68-16.15-1.18-24.19-2.09c-5.98-0.67-9.53-4.48-10.41-10.48
	c-0.29-1.97-0.41-3.96-0.57-5.95C304.83,54.53,304.27,47.51,303.69,40.26z"/>
<path class="st0" d="M194.07,144.51c-26.26-0.55-46.88,17.4-50.12,42.85c-2.99,23.49,13.49,46.28,37.45,51.8
	c28.53,6.57,57.06-15.36,58.1-44.65c0.05-1.49-0.01-3.02,0.28-4.47c1.21-6.05,6.79-10.17,12.86-9.6
	c6.16,0.58,10.73,5.74,10.84,12.24c0.52,30.59-21.22,59.67-51.22,68.52c-47.9,14.13-95-23.09-92.4-73.03
	c2.05-39.49,37.37-70.54,76.79-67.52c9.24,0.71,14.87,6.72,13.35,14.26c-1.21,6.04-6.11,9.96-12.3,9.82
	C196.2,144.7,194.7,144.55,194.07,144.51z"/>
</svg>
