<?xml version="1.0" encoding="utf-8"?>
<!-- Generator: Adobe Illustrator 26.5.0, SVG Export Plug-In . SVG Version: 6.00 Build 0)  -->
<svg version="1.1" id="Capa_1" xmlns="http://www.w3.org/2000/svg" xmlns:xlink="http://www.w3.org/1999/xlink" x="0px" y="0px"
	 viewBox="0 0 384 384" style="enable-background:new 0 0 384 384;" xml:space="preserve">
<style type="text/css">
	.st0{fill:#E77C35;}
</style>
<g>
	<path class="st0" d="M384.5,258.11c-2.43,5.09-6.45,6.85-12.07,6.82c-28.74-0.18-57.47-0.08-86.21-0.08c-1.35,0-2.7,0-4.5,0
		c0,6.34,0.01,12.41,0,18.48c-0.02,8.02-3.39,11.46-11.3,11.46c-23.49,0.01-46.98,0.03-70.47-0.01c-5.51-0.01-9.13-2.83-10.09-7.61
		c-0.79-3.92,1.32-8.32,5.16-9.79c2.03-0.78,4.38-0.99,6.58-1c18.87-0.07,37.73-0.04,56.6-0.04c1.48,0,2.96,0,4.84,0
		c0.27-15.82,1.37-31.37-5.65-46.04c-6.39-13.37-15.9-23.71-29-30.76c-2.02-1.09-3.42-0.98-5.4,0.15
		c-20.37,11.65-40.82,11.57-61.16-0.1c-1.88-1.08-3.22-1.15-5.06-0.12c-21.35,11.98-33.16,30.08-34.78,54.5
		c-0.49,7.29-0.07,14.63-0.07,22.38c6.91,0,13.5-0.15,20.08,0.04c6.91,0.2,11.1,5.67,9.31,11.79c-1.12,3.83-4.32,6.49-8.61,6.55
		c-10.12,0.13-20.24,0.17-30.36-0.01c-5.36-0.1-8.92-4-9.02-9.51c-0.12-6.6-0.03-13.2-0.03-20.35c-1.62,0-3.06,0-4.51,0
		c-28.74,0-57.47-0.1-86.21,0.08c-5.62,0.03-9.64-1.73-12.07-6.82c0-9.73,0-19.46,0-29.2c1.05-4.33,1.81-8.76,3.19-12.98
		C7.95,202.87,15.66,192.2,26.73,184c0.8-0.59,1.59-1.19,2.38-1.8c0.09-0.07,0.12-0.21,0.18-0.32
		c-10.34-26.87-6.6-46.67,11.45-60.65c16.34-12.65,38.63-13.19,55.13-1.29c9.83,7.09,16.14,16.58,18.59,28.43
		c2.45,11.82,0.35,23.02-4.27,31.05c6.25,6.61,11.79,12.47,17.43,18.43c4.88-3.81,11.02-8.6,17.17-13.39
		c-21.32-30.83-10.05-64.72,9.93-81.08c22.26-18.22,53.4-18.21,75.56-0.01c19.91,16.35,31.27,50.16,9.93,81.09
		c6.08,4.74,12.15,9.47,17.12,13.34c5.51-5.79,11.13-11.71,17.47-18.37c-5.38-9.54-7.19-22.19-3.15-35.39
		c3.05-9.98,9-17.99,17.48-24.1c16.51-11.89,38.79-11.43,55.12,1.32c9.2,7.19,14.91,16.65,17.04,28.16
		c2.14,11.5-0.11,22.27-5.6,31.98c4.59,4.34,9.24,8.15,13.19,12.59c8.35,9.36,13.17,20.46,14.94,32.88c0.1,0.71,0.45,1.38,0.68,2.07
		C384.5,238.65,384.5,248.38,384.5,258.11z M192.32,108.18c-22.54,0.12-40.52,18.3-40.46,40.91c0.05,22.53,18.27,40.83,40.64,40.83
		c22.51,0,40.8-18.53,40.65-41.2C232.99,126.12,214.8,108.06,192.32,108.18z M103.95,246.24c1.64-10.59,4.8-20.48,9.86-29.76
		c0.44-0.8,0.03-2.39-0.49-3.33c-3.72-6.65-8.82-12.08-15.34-16.03c-1.06-0.64-3.14-0.66-4.22-0.04
		c-16.51,9.51-32.9,9.49-49.34-0.15c-0.93-0.55-2.73-0.64-3.6-0.1c-17.06,10.55-24.33,28.93-21.21,49.41
		C47.52,246.24,75.46,246.24,103.95,246.24z M365.91,246.26c0-4.58,0.22-8.8-0.04-12.99c-0.95-15.32-7.98-27.21-20.61-35.91
		c-1.87-1.29-3.23-1.4-5.32-0.19c-16.18,9.41-32.4,9.31-48.64-0.06c-1.09-0.63-3.18-0.66-4.22-0.02
		c-6.4,3.88-11.38,9.22-15.24,15.65c-1.08,1.8-0.91,3.14-0.14,5.08c2.97,7.49,5.63,15.11,8.28,22.72c0.63,1.82,0.8,3.8,1.19,5.72
		C309.48,246.26,337.43,246.26,365.91,246.26z M69.16,129.85c-15.39,0-27.81,12.48-27.8,27.92c0.01,15.42,12.46,27.87,27.86,27.86
		c15.37-0.01,27.89-12.56,27.85-27.91C97.02,142.3,84.55,129.85,69.16,129.85z M315.73,129.85c-15.37,0.04-27.85,12.6-27.8,27.96
		c0.05,15.38,12.57,27.84,27.95,27.81c15.38-0.03,27.83-12.57,27.75-27.96C343.55,142.18,331.14,129.81,315.73,129.85z"/>
	<path class="st0" d="M169.68,295.02c-1.83-0.29-3.73-0.34-5.47-0.91c-3.99-1.3-6.46-5.2-6.13-9.22c0.33-4.12,3.25-7.56,7.43-8.2
		c2.55-0.39,5.23-0.44,7.8-0.17c5.1,0.54,8.42,4.48,8.25,9.35c-0.16,4.84-3.78,8.48-8.85,8.87c-0.99,0.08-1.99,0.01-2.99,0.01
		C169.71,294.85,169.69,294.93,169.68,295.02z"/>
</g>
</svg>
