<?xml version="1.0" encoding="utf-8"?>
<!-- Generator: Adobe Illustrator 26.5.0, SVG Export Plug-In . SVG Version: 6.00 Build 0)  -->
<svg version="1.1" id="Capa_1" xmlns="http://www.w3.org/2000/svg" xmlns:xlink="http://www.w3.org/1999/xlink" x="0px" y="0px"
	 viewBox="0 0 450.35 183.16" style="enable-background:new 0 0 450.35 183.16;" xml:space="preserve">
<g>
	<path d="M112.24,20.65c-17.35,0-33.11,7.26-44.86,19.11C76.11,35,86.12,32.3,96.76,32.3c33.95,0,61.48,27.52,61.48,61.48
		s-27.52,61.48-61.48,61.48c-6.33,0-12.43-0.96-18.18-2.73c9.85,6.35,21.36,10.01,33.67,10.01c36.31,0,65.74-31.76,65.74-70.94
		C177.98,52.41,148.55,20.65,112.24,20.65z"/>
	<path d="M111.39,171.49c-43.96,0-79.6-35.78-79.6-79.92c0-44.14,35.64-79.92,79.6-79.92c14.18,0,27.48,3.74,39.02,10.27
		C134.47,8.27,113.81,0,91.22,0C40.84,0,0,41,0,91.58s40.84,91.58,91.22,91.58c22.6,0,43.26-8.27,59.19-21.93
		C138.88,167.75,125.57,171.49,111.39,171.49z"/>
	<polygon points="102.34,128.6 89.12,134.14 89.12,58.99 102.34,53.45 	"/>
	<rect x="192.26" y="16.79" width="10.26" height="148.52"/>
	<rect x="226.62" y="16.79" width="22.48" height="86.05"/>
	<rect x="263.44" y="38.74" width="22.48" height="64.09"/>
	<path d="M306.8,16.79h-43.53V35h42.7c4.58,3.16,13.36,10.77,13.36,22.8c0,14.74-3.55,22.25-12.28,27.28h-16.87v17.75h19.62
		c0,0,28.78-11.59,28.78-42.42S312.02,16.79,306.8,16.79z"/>
	<polygon points="372.78,68.27 352.59,32.02 352.59,102.84 372.78,102.84 	"/>
	<polygon points="409.21,84.34 386.42,84.34 352.41,16.79 375.21,16.79 	"/>
	<polygon points="423.14,16.79 422.67,16.79 420.24,16.79 399.87,56.12 412.58,77.61 422.67,57.9 422.67,102.84 444.91,102.84 
		444.91,16.79 	"/>
	<g>
		<path d="M246.34,127.78v4.24h-6.81v19.69h-4.79v-19.69h-6.85v-4.24H246.34z"/>
		<path d="M265.96,132.02h-12.05v5.08h11.06v4.16h-11.06v6.15h12.61v4.3h-17.26v-23.93h16.7V132.02z"/>
		<path d="M272.4,130.28c1.83-1.97,4.17-2.95,7-2.95c3.79,0,6.56,1.32,8.32,3.96c0.97,1.48,1.49,2.97,1.56,4.46h-4.76
			c-0.3-1.15-0.69-2.01-1.17-2.6c-0.85-1.04-2.1-1.56-3.77-1.56c-1.7,0-3.03,0.73-4.01,2.2c-0.98,1.47-1.47,3.54-1.47,6.23
			c0,2.68,0.52,4.69,1.55,6.03c1.03,1.34,2.34,2,3.94,2c1.63,0,2.88-0.57,3.73-1.72c0.47-0.62,0.87-1.54,1.18-2.78h4.73
			c-0.41,2.61-1.45,4.73-3.13,6.36c-1.68,1.63-3.82,2.45-6.44,2.45c-3.24,0-5.79-1.1-7.64-3.31c-1.86-2.22-2.78-5.26-2.78-9.12
			C269.24,135.77,270.29,132.55,272.4,130.28z"/>
		<path d="M293.05,151.71v-23.93h4.73v9.12h8.85v-9.12h4.73v23.93h-4.73v-10.68h-8.85v10.68H293.05z"/>
		<path d="M315.86,127.78h4.99l9.04,16.68v-16.68h4.43v23.93h-4.76l-9.27-16.98v16.98h-4.44V127.78z"/>
		<path d="M356.33,149.58c-1.72,1.86-4.21,2.79-7.46,2.79s-5.74-0.93-7.46-2.79c-2.31-2.28-3.46-5.57-3.46-9.87
			c0-4.38,1.15-7.67,3.46-9.87c1.72-1.86,4.21-2.79,7.46-2.79s5.74,0.93,7.46,2.79c2.3,2.2,3.45,5.49,3.45,9.87
			C359.77,144.01,358.62,147.3,356.33,149.58z M353.35,145.95c1.11-1.46,1.66-3.54,1.66-6.23c0-2.68-0.55-4.76-1.66-6.23
			c-1.11-1.47-2.6-2.2-4.49-2.2s-3.39,0.73-4.51,2.19c-1.12,1.46-1.68,3.54-1.68,6.23c0,2.69,0.56,4.77,1.68,6.23
			c1.12,1.46,2.63,2.19,4.51,2.19S352.24,147.41,353.35,145.95z"/>
		<path d="M363.4,127.78h4.76v19.63h11.37v4.3H363.4V127.78z"/>
		<path d="M400.27,149.58c-1.72,1.86-4.21,2.79-7.46,2.79s-5.74-0.93-7.46-2.79c-2.31-2.28-3.46-5.57-3.46-9.87
			c0-4.38,1.15-7.67,3.46-9.87c1.72-1.86,4.21-2.79,7.46-2.79s5.74,0.93,7.46,2.79c2.3,2.2,3.45,5.49,3.45,9.87
			C403.72,144.01,402.57,147.3,400.27,149.58z M397.3,145.95c1.11-1.46,1.66-3.54,1.66-6.23c0-2.68-0.55-4.76-1.66-6.23
			c-1.11-1.47-2.6-2.2-4.49-2.2s-3.39,0.73-4.51,2.19c-1.12,1.46-1.68,3.54-1.68,6.23c0,2.69,0.56,4.77,1.68,6.23
			c1.12,1.46,2.63,2.19,4.51,2.19S396.19,147.41,397.3,145.95z"/>
		<path d="M422.66,135.25c-0.36-1.63-1.24-2.78-2.64-3.42c-0.78-0.36-1.65-0.54-2.61-0.54c-1.83,0-3.34,0.73-4.52,2.18
			s-1.77,3.64-1.77,6.55c0,2.94,0.64,5.02,1.92,6.24c1.28,1.22,2.73,1.83,4.36,1.83c1.6,0,2.91-0.48,3.92-1.44
			c1.02-0.96,1.65-2.22,1.89-3.78h-5.27v-3.99h9.49v12.84h-3.15l-0.48-2.99c-0.92,1.13-1.74,1.93-2.47,2.39
			c-1.26,0.81-2.8,1.21-4.63,1.21c-3.02,0-5.49-1.1-7.42-3.29c-2.01-2.21-3.01-5.22-3.01-9.05c0-3.87,1.01-6.98,3.04-9.31
			c2.03-2.34,4.71-3.5,8.05-3.5c2.89,0,5.22,0.77,6.98,2.31c1.76,1.54,2.76,3.47,3.02,5.77H422.66z"/>
		<path d="M444.96,127.78h5.39l-7.62,14.96v8.97h-4.76v-8.97l-7.88-14.96h5.61l4.73,10.42L444.96,127.78z"/>
	</g>
</g>
</svg>
